<?xml version="1.0" encoding="utf-8"?>
<!-- Generator: Adobe Illustrator 23.0.2, SVG Export Plug-In . SVG Version: 6.00 Build 0)  -->
<svg version="1.1" id="Layer_1" xmlns="http://www.w3.org/2000/svg" xmlns:xlink="http://www.w3.org/1999/xlink" x="0px" y="0px"
	 viewBox="0 0 170.1 97.9" style="enable-background:new 0 0 170.1 97.9;" xml:space="preserve">
<style type="text/css">
	.st0{fill:#7DC242;}
	.st1{fill:#FFFFFF;}
</style>
<g>
	<g>
		<polygon class="st0" points="159.2,0 123.3,0 123.3,10.8 159.2,10.8 159.2,46.8 170.1,46.8 170.1,10.8 170.1,0 		"/>
		<path class="st1" d="M24.7,43.8c-0.8-0.2-1.7-0.4-2.6-0.6c-3.6-0.7-8-1.7-9.1-3.5c-0.3-0.4-0.3-0.9-0.1-1.4c1-3.3,4.6-3.1,6.8-3
			c0.2,0,0.3,0,0.4,0c2,0.1,7.4,1.2,10.7,4.1l0.3,0.2l3.5-8.4v-0.1c0-0.3-1.7-1.6-4.1-2.6c-2.5-1.1-6.7-2.4-12.7-2.4
			c-3,0-6.1,0.7-8.8,1.9c-3,1.3-5.1,3.2-6.1,5.3c-1.8,3.9-2,7.3-0.6,10.2c2,3.8,7.1,6.7,14.4,8c0.2,0,0.3,0,0.3,0.1l0,0
			c0.1,0,5.9,0.3,7.3,2.9c0.4,0.7,0.4,1.5,0,2.1c-0.6,1.1-2.3,1.8-4.6,2c-3.5,0.2-10.3-0.1-16-4.5L3.5,54L0,62.9L0.1,63
			c0.1,0.1,6.2,5.1,17.1,5.1c0.8,0,1.7,0,2.6-0.1c10.5-0.7,15.7-5.1,15.5-12.8C35.2,47.3,29.2,45,24.7,43.8z"/>
		<path class="st1" d="M47.9,80.6h-0.4c-2.2,0-4.2,1.2-5,2.9c-0.8-1.7-2.7-2.9-5-2.9h-0.4c-1.9,0-3.5,0.8-4.5,2.1v-1.7h-4.5v16.1
			h3.6h0.7h0.2V86.7c0.4-0.9,1.4-1.7,2.6-1.7h0.2c1.5,0,2.8,1.1,2.8,2.4v9.7h3.8h0.7h0.1V86.9c0.3-1.1,1.4-1.9,2.7-1.9h0.2
			c1.5,0,2.8,1.1,2.8,2.4v9.7h4.6V85.2C53.3,82.7,50.9,80.6,47.9,80.6z"/>
		<path class="st1" d="M139.3,80.3v2c-1.5-1.5-3.5-2.5-5.7-2.5c-4.5,0-8.2,3.9-8.2,8.8s3.6,8.8,8.2,8.8c2.2,0,4.2-0.9,5.7-2.5v2h4
			V80.3H139.3z M134.1,93.7c-2.6,0-4.7-2.3-4.7-5.1c0-2.8,2.1-5.1,4.7-5.1c2.6,0,4.7,2.3,4.7,5.1C138.8,91.5,136.7,93.7,134.1,93.7z
			"/>
		<path class="st1" d="M99.7,68.9v13.3c-1.5-1.6-3.6-2.6-5.9-2.6c-4.7,0-8.5,4.1-8.5,9.2c0,5.1,3.8,9.2,8.5,9.2c2.3,0,4.4-1,5.9-2.6
			v2.1h4.6V68.9H99.7z M94.3,94c-2.7,0-4.9-2.4-4.9-5.3c0-2.9,2.2-5.3,4.9-5.3c2.7,0,4.9,2.4,4.9,5.3C99.2,91.7,97,94,94.3,94z"/>
		<rect x="112.9" y="75.5" class="st1" width="4.6" height="22.4"/>
		<g>
			<path class="st1" d="M131.7,26.5h-1c-5,0-9.3,2.7-11.1,6.5c-1.8-3.8-6.1-6.5-11.1-6.5h-1c-4.1,0-7.8,1.9-10,4.7v-3.9h-10v39.3h8
				h1.7h0.4V41.5c0.9-2.1,3.2-4.1,5.9-4.1h0.5c3.4,0,6.2,2.4,6.2,5.4v20.8c1-1.8,2.9-3.1,5.2-3.1c2.3,0,4.2,1.3,5.2,3.2V42
				c0.6-2.4,3.1-4.5,6.1-4.5h0.5c3.4,0,6.2,2.4,6.2,5.4v23.8h10.4V37C143.7,31.2,138.3,26.5,131.7,26.5z"/>
		</g>
		<path class="st1" d="M71,27.3v4.2c-3.6-2.8-8.2-4.5-13.1-4.2c-10,0.4-18.2,8.5-18.9,18.5c-0.7,11.5,8.4,21.1,19.7,21.1
			c4.6,0,8.9-1.6,12.2-4.3v4h10.1V27.3H71z M61.1,58.3c-7.4,0.9-13.7-5.3-12.7-12.7c0.6-5.1,4.7-9.2,9.8-9.8
			c7.4-0.9,13.7,5.3,12.7,12.7C70.2,53.5,66.1,57.6,61.1,58.3z"/>
		<path class="st1" d="M77.4,89.9c0-0.4,1.4-9.9-8-10.2c-4.9-0.2-8.9,3.9-9,8.9c-0.1,5,3.8,8.8,8.7,8.9c3.7,0.1,6.8-2.1,8.2-5.4
			L72.5,92c0,0-0.1,2-3.8,1.7c-3.8-0.3-3.3-4-3.3-4L77.4,89.9z M69.2,83.5c1.7,0,3.1,1.2,3.5,2.9h-7.1C66,84.7,67.5,83.4,69.2,83.5z
			"/>
	</g>
	<g>
		<path class="st0" d="M116.2,62.6c-2.8-0.6-5.3,1.8-4.7,4.6c0.3,1.4,1.5,2.6,2.9,2.9c2.8,0.6,5.3-1.8,4.6-4.6
			C118.7,64.1,117.6,63,116.2,62.6z"/>
	</g>
</g>
</svg>
